# xmcd
#
# Track frame offsets: 
#        200
#        11890
#        27852
#        38310
#        59362
#        73772
#        84112
#        100150
#        104697
#        117880
#        135737
#        157355
#        168120
#        182017
#
# Disc length: 2663 seconds
#
# Revision: 5
# Processed by: cddbd v1.5.2PL0 Copyright (c) Steve Scherf et al.
# Submitted via: ExactAudioCopy v0.95a3
#
DISCID=b30a650e
DTITLE=The Monkeywrench - Clean As A Broke-Dick Dog
DYEAR=1992
DGENRE=Grunge
TTITLE0=Call My Body Home
TTITLE1=Angelhead
TTITLE2=Cold Cold World (With Organ)
TTITLE3=Codine
TTITLE4=From You
TTITLE5=Doubled Over Again
TTITLE6=Great Down Here
TTITLE7=Intermission
TTITLE8=Look Back
TTITLE9=Bottle Up and Go
TTITLE10=The Story As I Was Told
TTITLE11=Notes and Chords Mean Nothing To Me
TTITLE12=Stop This World
TTITLE13=I'm Blown
EXTD=
EXTT0=
EXTT1=
EXTT2=
EXTT3=
EXTT4=
EXTT5=
EXTT6=
EXTT7=
EXTT8=
EXTT9=
EXTT10=
EXTT11=
EXTT12=
EXTT13=
PLAYORDER=
